<svg xmlns="http://www.w3.org/2000/svg" width="45" height="39" viewBox="0 0 45 39">
    <g fill="none" fill-rule="evenodd">
        <g fill="#957757">
            <g>
                <g>
                    <path d="M34.984 27.846H7.473c-3.362 0-6.095-2.902-6.095-6.471 0-3.568 2.733-6.472 6.095-6.472v.116c.235 0 .467.017.695.045 2.792.338 5.015 2.688 5.35 5.647.03.256.049.515.049.779h1.378c0-3.86-2.668-7.07-6.167-7.721.413-6.985 5.787-12.392 12.45-12.392 6.821 0 12.305 5.66 12.484 12.886l.018.735.733-.067c.172-.016.345-.028.52-.028 3.361 0 6.096 2.904 6.096 6.472 0 3.569-2.735 6.471-6.095 6.471zm.072-14.32C34.531 5.885 28.58 0 21.228 0 13.876 0 7.925 5.886 7.4 13.525c-4.086.043-7.4 3.547-7.4 7.85 0 4.328 3.354 7.85 7.474 7.85h27.51c4.12 0 7.473-3.522 7.473-7.85 0-4.303-3.312-7.807-7.4-7.85z" transform="translate(-413 -927) translate(413 927) translate(1.385 4.154)"/>
                </g>
            </g>
        </g>
    </g>
</svg>
