<svg xmlns="http://www.w3.org/2000/svg" width="28" height="24" viewBox="0 0 28 24">
    <g fill="none" fill-rule="evenodd">
        <g fill="#957757">
            <g>
                <g>
                    <path d="M21.768 17.552H4.65c-2.092 0-3.793-1.83-3.793-4.08 0-2.248 1.701-4.079 3.793-4.079v.073c.146 0 .29.011.433.029 1.737.213 3.12 1.694 3.329 3.56.018.16.03.324.03.49h.857c0-2.432-1.66-4.456-3.837-4.866.257-4.403 3.6-7.81 7.747-7.81 4.244 0 7.656 3.566 7.768 8.12l.01.464.457-.042c.107-.01.214-.018.324-.018 2.09 0 3.792 1.83 3.792 4.08 0 2.249-1.702 4.079-3.792 4.079zm.045-9.027C21.486 3.71 17.783 0 13.209 0 8.634 0 4.93 3.71 4.604 8.525 2.061 8.552 0 10.761 0 13.473 0 16.2 2.086 18.42 4.65 18.42h17.118c2.563 0 4.65-2.22 4.65-4.947 0-2.712-2.062-4.921-4.605-4.948z" transform="translate(-1052 -8352) translate(1052 8352) translate(.862 2.618)"/>
                </g>
            </g>
        </g>
    </g>
</svg>
