<svg xmlns="http://www.w3.org/2000/svg" width="11" height="15" viewBox="0 0 11 15">
    <g fill="none" fill-rule="evenodd">
        <g fill="#957757" fill-rule="nonzero">
            <g>
                <path d="M5.5 0C2.477 0 .017 2.437.017 5.432c0 3.718 4.907 9.175 5.116 9.406.196.216.538.216.734 0 .21-.23 5.116-5.688 5.116-9.406C10.983 2.437 8.523 0 5.5 0zm0 8.166c-1.521 0-2.759-1.227-2.759-2.734S3.98 2.7 5.5 2.7s2.759 1.226 2.759 2.733c0 1.508-1.238 2.734-2.759 2.734z" transform="translate(-411 -4029) translate(411 3691) translate(0 338)"/>
            </g>
        </g>
    </g>
</svg>
