<svg xmlns="http://www.w3.org/2000/svg" width="17" height="18" viewBox="0 0 17 18">
    <g fill="none" fill-rule="evenodd">
        <g fill="#363636" fill-rule="nonzero">
            <path d="M16.74 15.751l-4.115-4.28c1.058-1.258 1.638-2.841 1.638-4.489C14.263 3.132 11.131 0 7.281 0S.299 3.132.299 6.982s3.132 6.982 6.982 6.982c1.445 0 2.822-.436 4-1.263l4.147 4.313c.173.18.407.28.656.28.237 0 .461-.09.632-.255.361-.348.373-.925.025-1.288zM7.28 1.821c2.847 0 5.162 2.315 5.162 5.161 0 2.846-2.315 5.16-5.161 5.16-2.846 0-5.16-2.314-5.16-5.16s2.314-5.16 5.16-5.16z" transform="translate(-1328 -39) translate(1328 39.5)"/>
        </g>
    </g>
</svg>
