<svg xmlns="http://www.w3.org/2000/svg" width="43" height="43" viewBox="0 0 43 43">
    <g fill="none" fill-rule="evenodd">
        <g fill="#000" fill-rule="nonzero">
            <path d="M20.899 0C9.42 0 0 9.412 0 20.881c0 11.47 9.42 20.882 20.899 20.882 11.479 0 20.899-9.412 20.899-20.882C41.798 9.412 32.378 0 20.898 0zm-3.674 31.893H9.878v-7.341h2.45v4.894h4.897v2.447zm0-19.576h-4.898v4.894H9.878V9.87h7.347v2.447zM31.92 31.893h-7.347v-2.447h4.898v-4.894h2.449v7.341zm0-14.682h-2.45v-4.894h-4.897V9.87h7.347v7.34z" transform="translate(-1176 -5571) translate(1176.308 5571.39)"/>
        </g>
    </g>
</svg>
